<?xml version="1.0" encoding="UTF-8" standalone="no"?><!DOCTYPE svg PUBLIC "-//W3C//DTD SVG 1.1//EN" "http://www.w3.org/Graphics/SVG/1.1/DTD/svg11.dtd"><svg width="100%" height="100%" viewBox="0 0 25 25" version="1.1" xmlns="http://www.w3.org/2000/svg" xmlns:xlink="http://www.w3.org/1999/xlink" xml:space="preserve" xmlns:serif="http://www.serif.com/" style="fill-rule:evenodd;clip-rule:evenodd;stroke-linejoin:round;stroke-miterlimit:2;"><path d="M24.726,0.986c0,-0.544 -0.442,-0.986 -0.986,-0.986l-22.754,0c-0.544,0 -0.986,0.442 -0.986,0.986l0,22.68c0,0.544 0.442,0.986 0.986,0.986l22.754,0c0.544,0 0.986,-0.442 0.986,-0.986l0,-22.68Z" style="fill:#0000e1;"/><path d="M7.298,4.431l0,15.789l2.502,0l0,-15.789l-2.502,0Zm2.594,0l1.563,15.789l0.851,0l-1.564,-15.789l-0.85,0Zm4.069,0l-1.563,15.789l0.85,0l1.563,-15.789l-0.85,0Zm0.942,0l0,15.789l2.525,0l0,-15.789l-2.525,0Z" style="fill:#fff;fill-rule:nonzero;"/></svg>